<svg width="459" height="426" viewBox="0 0 459 426" fill="none" xmlns="http://www.w3.org/2000/svg">
<mask id="path-1-inside-1_125_26" fill="white">
<path d="M388 200C369.17 200 351.111 207.48 337.795 220.795C324.48 234.11 317 252.17 317 271C317 289.83 324.48 307.889 337.795 321.205C351.11 334.52 369.17 342 388 342L388 271L388 200Z"/>
</mask>
<path d="M388 200C369.17 200 351.111 207.48 337.795 220.795C324.48 234.11 317 252.17 317 271C317 289.83 324.48 307.889 337.795 321.205C351.11 334.52 369.17 342 388 342L388 271L388 200Z" stroke="#121212" stroke-width="4" mask="url(#path-1-inside-1_125_26)"/>
<mask id="path-2-inside-2_125_26" fill="white">
<path d="M59.4202 1.67077C65.3729 3.30181 70.9461 6.08935 75.8215 9.87425C80.6969 13.6591 84.7791 18.3673 87.835 23.7298C90.8909 29.0923 92.8606 35.0042 93.6317 41.128C94.4029 47.2518 93.9603 53.4675 92.3292 59.4202C90.6982 65.3729 87.9106 70.9461 84.1257 75.8215C80.3408 80.6969 75.6327 84.7791 70.2702 87.835C64.9077 90.8909 58.9957 92.8606 52.872 93.6317C46.7482 94.4029 40.5325 93.9603 34.5798 92.3292L44.1943 57.24C45.539 57.6084 46.9431 57.7084 48.3265 57.5342C49.7099 57.36 51.0454 56.915 52.2568 56.2247C53.4682 55.5344 54.5318 54.6122 55.3868 53.5108C56.2418 52.4095 56.8715 51.1505 57.24 49.8057C57.6084 48.461 57.7084 47.0569 57.5342 45.6735C57.36 44.2901 56.915 42.9546 56.2247 41.7432C55.5344 40.5318 54.6122 39.4682 53.5108 38.6132C52.4095 37.7582 51.1505 37.1285 49.8057 36.76L59.4202 1.67077Z"/>
</mask>
<path d="M59.4202 1.67077C65.3729 3.30181 70.9461 6.08935 75.8215 9.87425C80.6969 13.6591 84.7791 18.3673 87.835 23.7298C90.8909 29.0923 92.8606 35.0042 93.6317 41.128C94.4029 47.2518 93.9603 53.4675 92.3292 59.4202C90.6982 65.3729 87.9106 70.9461 84.1257 75.8215C80.3408 80.6969 75.6327 84.7791 70.2702 87.835C64.9077 90.8909 58.9957 92.8606 52.872 93.6317C46.7482 94.4029 40.5325 93.9603 34.5798 92.3292L44.1943 57.24C45.539 57.6084 46.9431 57.7084 48.3265 57.5342C49.7099 57.36 51.0454 56.915 52.2568 56.2247C53.4682 55.5344 54.5318 54.6122 55.3868 53.5108C56.2418 52.4095 56.8715 51.1505 57.24 49.8057C57.6084 48.461 57.7084 47.0569 57.5342 45.6735C57.36 44.2901 56.915 42.9546 56.2247 41.7432C55.5344 40.5318 54.6122 39.4682 53.5108 38.6132C52.4095 37.7582 51.1505 37.1285 49.8057 36.76L59.4202 1.67077Z" stroke="#121212" stroke-width="4" mask="url(#path-2-inside-2_125_26)"/>
<path d="M86.0431 424.282C118.546 416.537 138.305 382.603 130.176 348.488C122.047 314.373 89.1079 292.996 56.6047 300.741" stroke="#121212" stroke-width="2"/>
</svg>
